<svg xmlns="http://www.w3.org/2000/svg" xmlns:xlink="http://www.w3.org/1999/xlink" width="267.07" height="266" viewBox="0 0 267.07 266">
  <defs>
    <linearGradient id="linear-gradient" x1="0.246" y1="0.083" x2="0.84" y2="0.934" gradientUnits="objectBoundingBox">
      <stop offset="0" stop-color="#f79432"/>
      <stop offset="0.51" stop-color="#f7f7f7"/>
      <stop offset="1" stop-color="#128308"/>
    </linearGradient>
    <clipPath id="clip-cog">
      <rect width="267.07" height="266"/>
    </clipPath>
  </defs>
  <g id="cog" clip-path="url(#clip-cog)">
    <g id="Group_3" data-name="Group 3" transform="translate(1.262 0.292)">
      <g id="Group_2" data-name="Group 2">
        <g id="Group_1" data-name="Group 1">
          <path id="Path_1" data-name="Path 1" d="M263.808,139.306V126.19l-15.063-5q-.363-3.687-.955-7.305l13.25-8.721L257.645,92.5l-15.811-.929q-1.31-3.47-2.818-6.839l10.516-11.823-6.559-11.359-15.5,3.2q-2.158-3.012-4.506-5.875l7.1-14.144-9.273-9.273-14.111,7.082q-2.871-2.361-5.9-4.539l3.186-15.451-11.357-6.559-11.738,10.44q-3.406-1.552-6.934-2.884l-.918-15.67-12.668-3.4-8.615,13.086c-2.467-.408-4.961-.745-7.48-1l-4.93-14.858H126.216L121.3,16.526q-3.806.363-7.535.971L105.2,4.476l-12.671,3.4-.906,15.5q-3.606,1.349-7.1,2.918L72.937,15.985,61.576,22.543,64.7,37.717Q61.573,39.958,58.6,42.4L44.756,35.454l-9.275,9.273,6.93,13.81q-2.458,2.982-4.715,6.132L22.573,61.55,16.014,72.909l10.23,11.5q-1.608,3.531-2.982,7.188L7.9,92.5,4.506,105.167l12.857,8.463c-.418,2.544-.762,5.114-1.012,7.711l-14.613,4.85V139.3l14.613,4.847c.25,2.6.594,5.17,1.012,7.715L4.506,160.329,7.9,173l15.361.9q1.377,3.655,2.982,7.188l-10.23,11.5,6.559,11.357L37.7,200.826q2.259,3.146,4.715,6.132l-6.93,13.809,9.275,9.275L58.6,223.095q2.973,2.438,6.107,4.682l-3.129,15.174,11.361,6.558L84.523,239.2q3.486,1.573,7.1,2.92l.906,15.5,12.668,3.4,8.57-13.023q3.729.606,7.535.972l4.916,14.819h13.115l4.93-14.858q3.78-.375,7.48-.994l8.615,13.086,12.668-3.4.918-15.668q3.522-1.337,6.934-2.883l11.738,10.438,11.357-6.558-3.186-15.45q3.018-2.18,5.9-4.539l14.111,7.082,9.273-9.275-7.1-14.144q2.346-2.86,4.506-5.872l15.5,3.193,6.559-11.357-10.516-11.824c1.012-2.243,1.945-4.525,2.818-6.84L257.643,173l3.395-12.67-13.25-8.721q.587-3.618.955-7.3Zm-59.639,65.485a101.277,101.277,0,1,1,29.661-71.613A101.671,101.671,0,0,1,204.169,204.791Z" fill="url(#linear-gradient)"/>
        </g>
      </g>
    </g>
  </g>
</svg>
